<svg xmlns="http://www.w3.org/2000/svg" viewBox="0 0 1180 760" role="img" aria-label="PassMan enterprise vault console overview">
  <defs>
    <linearGradient id="bg" x1="0" x2="1" y1="0" y2="1">
      <stop stop-color="#0d141c"/>
      <stop offset=".58" stop-color="#070b10"/>
      <stop offset="1" stop-color="#11161c"/>
    </linearGradient>
    <linearGradient id="amber" x1="0" x2="1">
      <stop stop-color="#f0b35c"/>
      <stop offset="1" stop-color="#5cc8d7"/>
    </linearGradient>
    <filter id="glow" x="-20%" y="-20%" width="140%" height="140%">
      <feGaussianBlur stdDeviation="16" result="blur"/>
      <feColorMatrix in="blur" values="1 0 0 0 0.94 0 1 0 0 0.70 0 0 1 0 0.36 0 0 0 0.35 0"/>
      <feMerge><feMergeNode/><feMergeNode in="SourceGraphic"/></feMerge>
    </filter>
  </defs>
  <rect width="1180" height="760" rx="42" fill="#05070a"/>
  <rect x="20" y="20" width="1140" height="720" rx="34" fill="url(#bg)" stroke="#27333f"/>
  <rect x="48" y="48" width="220" height="664" rx="28" fill="#0a1016" stroke="#27313a"/>
  <circle cx="82" cy="82" r="16" fill="url(#amber)"/>
  <text x="112" y="88" fill="#f7f2e8" font-family="Segoe UI, sans-serif" font-size="22" font-weight="700">PassMan</text>
  <g font-family="Segoe UI, sans-serif" font-size="15" fill="#9da8b3">
    <rect x="72" y="132" width="152" height="42" rx="15" fill="#16202a" stroke="#f0b35c"/>
    <text x="98" y="158" fill="#f5d49d">Genel bakış</text>
    <text x="82" y="214">Parolalar</text>
    <text x="82" y="256">Paylaşım</text>
    <text x="82" y="298">Giriş güvenliği</text>
    <text x="82" y="340">Denetim kaydı</text>
    <text x="82" y="382">Entegrasyonlar</text>
    <text x="82" y="424">Sunucu sistemi</text>
  </g>
  <rect x="296" y="48" width="816" height="58" rx="24" fill="#0a1016" stroke="#27313a"/>
  <text x="326" y="84" fill="#cfd7df" font-family="Segoe UI, sans-serif" font-size="18">Ara veya komut çalıştır</text>
  <rect x="1018" y="62" width="34" height="30" rx="15" fill="#18242e"/>
  <rect x="1062" y="62" width="34" height="30" rx="15" fill="#18242e"/>
  <text x="296" y="164" fill="#f7f2e8" font-family="Segoe UI, sans-serif" font-size="48" font-weight="760">Güvenlik duruşu</text>
  <text x="296" y="198" fill="#95a2ad" font-family="Segoe UI, sans-serif" font-size="18">Sistem sağlığı, riskler ve ilk eylem tek ekranda görünür.</text>
  <rect x="296" y="230" width="512" height="260" rx="30" fill="#101820" stroke="#30414f"/>
  <circle cx="412" cy="360" r="82" fill="none" stroke="#27313a" stroke-width="20"/>
  <path d="M412 278a82 82 0 0 1 82 82" fill="none" stroke="url(#amber)" stroke-width="20" stroke-linecap="round" filter="url(#glow)"/>
  <text x="372" y="354" fill="#fff5df" font-family="Segoe UI, sans-serif" font-size="44" font-weight="800">25</text>
  <text x="432" y="356" fill="#93a0aa" font-family="Segoe UI, sans-serif" font-size="22">/100</text>
  <text x="346" y="394" fill="#f0b35c" font-family="Segoe UI, sans-serif" font-size="17">3 risk bekliyor</text>
  <text x="534" y="310" fill="#f7f2e8" font-family="Segoe UI, sans-serif" font-size="26" font-weight="720">İlk üç aksiyon</text>
  <g font-family="Segoe UI, sans-serif" font-size="16">
    <rect x="534" y="334" width="220" height="46" rx="16" fill="#1d211d" stroke="#f0b35c"/>
    <text x="552" y="363" fill="#ffd38a">2FA'yı etkinleştir</text>
    <rect x="534" y="390" width="220" height="46" rx="16" fill="#111b22" stroke="#5cc8d7"/>
    <text x="552" y="419" fill="#bcecf2">Denetimi incele</text>
    <rect x="534" y="446" width="220" height="46" rx="16" fill="#111b22" stroke="#5cc8d7"/>
    <text x="552" y="475" fill="#bcecf2">Eklenti eşleştir</text>
  </g>
  <g>
    <rect x="834" y="230" width="278" height="118" rx="26" fill="#101820" stroke="#30414f"/>
    <text x="862" y="276" fill="#f7f2e8" font-family="Segoe UI, sans-serif" font-size="34" font-weight="760">15</text>
    <text x="862" y="306" fill="#9da8b3" font-family="Segoe UI, sans-serif" font-size="17">Son 7 günde 15 yeni kayıt</text>
    <rect x="834" y="372" width="278" height="118" rx="26" fill="#101820" stroke="#30414f"/>
    <text x="862" y="418" fill="#f7f2e8" font-family="Segoe UI, sans-serif" font-size="34" font-weight="760">1/25</text>
    <text x="862" y="448" fill="#9da8b3" font-family="Segoe UI, sans-serif" font-size="17">Kapasite kullanımı %4</text>
  </g>
  <g>
    <rect x="296" y="520" width="252" height="150" rx="28" fill="#101820" stroke="#30414f"/>
    <rect x="572" y="520" width="252" height="150" rx="28" fill="#101820" stroke="#30414f"/>
    <rect x="848" y="520" width="264" height="150" rx="28" fill="#101820" stroke="#30414f"/>
    <text x="326" y="574" fill="#f7f2e8" font-family="Segoe UI, sans-serif" font-size="25" font-weight="720">Paket güncel</text>
    <text x="602" y="574" fill="#f7f2e8" font-family="Segoe UI, sans-serif" font-size="25" font-weight="720">49 audit olayı</text>
    <text x="878" y="574" fill="#f7f2e8" font-family="Segoe UI, sans-serif" font-size="25" font-weight="720">Kasa açık</text>
    <path d="M326 626c36-42 74 32 112-8 34-36 58 20 82-12" fill="none" stroke="#5cc8d7" stroke-width="5" stroke-linecap="round"/>
    <path d="M602 626c36 20 58-36 92-10 38 28 72-28 104 0" fill="none" stroke="#f0b35c" stroke-width="5" stroke-linecap="round"/>
    <path d="M878 626c34-22 66-18 96-2 34 18 62 6 94-24" fill="none" stroke="#65c98a" stroke-width="5" stroke-linecap="round"/>
  </g>
</svg>
