<svg xmlns="http://www.w3.org/2000/svg" viewBox="0 0 980 520" role="img" aria-label="PassMan update trust chain">
  <rect width="980" height="520" rx="34" fill="#05070a"/>
  <text x="64" y="82" fill="#f7f2e8" font-family="Segoe UI, sans-serif" font-size="36" font-weight="760">Signed update trust chain</text>
  <g font-family="Segoe UI, sans-serif">
    <g>
      <rect x="72" y="142" width="178" height="180" rx="28" fill="#101820" stroke="#2b3744"/>
      <text x="104" y="202" fill="#f7f2e8" font-size="22" font-weight="760">Manifest</text>
      <text x="104" y="236" fill="#9da8b3" font-size="15">Ed25519 signature</text>
      <text x="104" y="262" fill="#9da8b3" font-size="15">Pinned release data</text>
    </g>
    <g>
      <rect x="292" y="142" width="178" height="180" rx="28" fill="#101820" stroke="#2b3744"/>
      <text x="324" y="202" fill="#f7f2e8" font-size="22" font-weight="760">SHA-256</text>
      <text x="324" y="236" fill="#9da8b3" font-size="15">Asset integrity</text>
      <text x="324" y="262" fill="#9da8b3" font-size="15">File metadata</text>
    </g>
    <g>
      <rect x="512" y="142" width="178" height="180" rx="28" fill="#101820" stroke="#2b3744"/>
      <text x="544" y="202" fill="#f7f2e8" font-size="22" font-weight="760">Signer pin</text>
      <text x="544" y="236" fill="#9da8b3" font-size="15">MSI thumbprint</text>
      <text x="544" y="262" fill="#9da8b3" font-size="15">Local signer allowed</text>
    </g>
    <g>
      <rect x="732" y="142" width="178" height="180" rx="28" fill="#101820" stroke="#2b3744"/>
      <text x="764" y="202" fill="#f7f2e8" font-size="22" font-weight="760">Install</text>
      <text x="764" y="236" fill="#9da8b3" font-size="15">Quiet MSI flow</text>
      <text x="764" y="262" fill="#9da8b3" font-size="15">Service restart</text>
    </g>
  </g>
  <path d="M252 232h38M472 232h38M692 232h38" stroke="#f0b35c" stroke-width="5" stroke-linecap="round"/>
  <rect x="72" y="366" width="838" height="70" rx="24" fill="#111a22" stroke="#5cc8d7"/>
  <text x="104" y="408" fill="#bcecf2" font-family="Segoe UI, sans-serif" font-size="18">PassMan blocks unsigned manifests, hash mismatches, unexpected hosts, and signer changes.</text>
</svg>
